<svg width="1440" height="1288" viewBox="0 0 1440 1288" fill="none" xmlns="http://www.w3.org/2000/svg">
<g clip-path="url(#clip0_7760_16)" filter="url(#filter0_d_7760_16)">
<path d="M63.4545 1254.45C57.8485 1254.45 52.9545 1252.91 48.7727 1249.82C44.5909 1246.73 41.3485 1242.47 39.0455 1237.05C36.7727 1231.59 35.6364 1225.33 35.6364 1218.27C35.6364 1211.27 36.7879 1205.06 39.0909 1199.64C41.4242 1194.18 44.6818 1189.91 48.8636 1186.82C53.0455 1183.7 57.9242 1182.14 63.5 1182.14C67.5 1182.14 70.9697 1182.91 73.9091 1184.45C76.8788 1185.97 79.3636 1187.98 81.3636 1190.5C83.3939 1193.02 84.9394 1195.77 86 1198.77H86.5455V1159.91H92.0455V1253H86.6818V1237.77H86C84.8788 1240.77 83.3182 1243.55 81.3182 1246.09C79.3182 1248.61 76.8333 1250.64 73.8636 1252.18C70.8939 1253.7 67.4242 1254.45 63.4545 1254.45ZM63.9545 1249.32C68.6818 1249.32 72.7273 1247.97 76.0909 1245.27C79.4849 1242.55 82.0758 1238.85 83.8636 1234.18C85.6818 1229.48 86.5909 1224.17 86.5909 1218.23C86.5909 1212.29 85.6818 1207 83.8636 1202.36C82.0758 1197.7 79.4849 1194.03 76.0909 1191.36C72.7273 1188.67 68.6818 1187.32 63.9545 1187.32C59.1667 1187.32 55.0606 1188.68 51.6364 1191.41C48.2424 1194.11 45.6364 1197.79 43.8182 1202.45C42.0303 1207.12 41.1364 1212.38 41.1364 1218.23C41.1364 1224.08 42.0303 1229.35 43.8182 1234.05C45.6364 1238.74 48.2424 1242.47 51.6364 1245.23C55.0606 1247.95 59.1667 1249.32 63.9545 1249.32ZM158.542 1254.45C152.602 1254.45 147.375 1252.89 142.86 1249.77C138.345 1246.62 134.815 1242.32 132.269 1236.86C129.754 1231.41 128.496 1225.23 128.496 1218.32C128.496 1211.41 129.769 1205.23 132.315 1199.77C134.86 1194.32 138.39 1190.02 142.905 1186.86C147.421 1183.71 152.618 1182.14 158.496 1182.14C162.921 1182.14 166.951 1183.05 170.587 1184.86C174.254 1186.68 177.284 1189.21 179.678 1192.45C182.102 1195.7 183.648 1199.45 184.315 1203.73H178.678C177.769 1199 175.496 1195.09 171.86 1192C168.254 1188.88 163.815 1187.32 158.542 1187.32C153.815 1187.32 149.602 1188.65 145.905 1191.32C142.208 1193.95 139.299 1197.61 137.178 1202.27C135.057 1206.91 133.996 1212.23 133.996 1218.23C133.996 1224.14 135.027 1229.44 137.087 1234.14C139.148 1238.8 142.027 1242.5 145.724 1245.23C149.421 1247.95 153.693 1249.32 158.542 1249.32C161.966 1249.32 165.087 1248.64 167.905 1247.27C170.754 1245.91 173.133 1243.97 175.042 1241.45C176.951 1238.94 178.208 1236 178.815 1232.64H184.451C183.784 1236.94 182.269 1240.73 179.905 1244C177.542 1247.27 174.527 1249.83 170.86 1251.68C167.193 1253.53 163.087 1254.45 158.542 1254.45ZM237.22 1254.5C233.19 1254.5 229.493 1253.7 226.129 1252.09C222.796 1250.48 220.114 1248.14 218.084 1245.05C216.084 1241.95 215.084 1238.2 215.084 1233.77C215.084 1230.86 215.599 1228.3 216.629 1226.09C217.659 1223.88 219.25 1221.97 221.402 1220.36C223.553 1218.76 226.311 1217.44 229.675 1216.41C233.038 1215.35 237.053 1214.53 241.72 1213.95C245.265 1213.53 248.432 1213.12 251.22 1212.73C254.008 1212.3 256.19 1211.65 257.765 1210.77C259.372 1209.89 260.175 1208.56 260.175 1206.77V1203.86C260.175 1198.77 258.568 1194.73 255.356 1191.73C252.144 1188.73 247.72 1187.23 242.084 1187.23C237.084 1187.23 232.872 1188.33 229.447 1190.55C226.053 1192.73 223.675 1195.55 222.311 1199L217.084 1197.05C218.417 1193.71 220.341 1190.94 222.856 1188.73C225.402 1186.52 228.311 1184.86 231.584 1183.77C234.887 1182.68 238.341 1182.14 241.947 1182.14C245.068 1182.14 248.038 1182.58 250.856 1183.45C253.705 1184.33 256.235 1185.67 258.447 1187.45C260.69 1189.24 262.462 1191.53 263.765 1194.32C265.068 1197.08 265.72 1200.38 265.72 1204.23V1253H260.175V1240.41H259.765C258.553 1243.02 256.887 1245.39 254.765 1247.55C252.675 1249.67 250.144 1251.36 247.175 1252.64C244.235 1253.88 240.917 1254.5 237.22 1254.5ZM237.765 1249.36C242.129 1249.36 245.993 1248.3 249.356 1246.18C252.75 1244.03 255.402 1241.09 257.311 1237.36C259.22 1233.64 260.175 1229.41 260.175 1224.68V1214.41C259.478 1215.02 258.462 1215.56 257.129 1216.05C255.826 1216.5 254.341 1216.91 252.675 1217.27C251.038 1217.61 249.311 1217.91 247.493 1218.18C245.705 1218.42 243.962 1218.65 242.265 1218.86C237.175 1219.47 233.023 1220.41 229.811 1221.68C226.629 1222.92 224.296 1224.56 222.811 1226.59C221.356 1228.62 220.629 1231.08 220.629 1233.95C220.629 1238.71 222.265 1242.47 225.538 1245.23C228.811 1247.98 232.887 1249.36 237.765 1249.36ZM304.33 1253V1183.18H309.739V1194.09H310.239C311.754 1190.52 314.315 1187.65 317.921 1185.5C321.527 1183.32 325.633 1182.23 330.239 1182.23C330.724 1182.23 331.209 1182.23 331.694 1182.23C332.178 1182.23 332.633 1182.24 333.057 1182.27V1187.86C332.694 1187.83 332.254 1187.79 331.739 1187.73C331.254 1187.64 330.648 1187.59 329.921 1187.59C326.042 1187.59 322.588 1188.42 319.557 1190.09C316.557 1191.76 314.194 1194.06 312.466 1197C310.739 1199.91 309.875 1203.24 309.875 1207V1253H304.33ZM392.372 1183.18V1188.14H361.872V1183.18H392.372ZM372.19 1166.45H377.69V1236.5C377.69 1239.35 378.235 1241.68 379.326 1243.5C380.448 1245.29 381.902 1246.62 383.69 1247.5C385.508 1248.35 387.448 1248.77 389.508 1248.77C390.508 1248.77 391.372 1248.7 392.099 1248.55C392.857 1248.39 393.569 1248.2 394.235 1247.95L395.599 1253C394.751 1253.3 393.811 1253.56 392.781 1253.77C391.751 1254.02 390.538 1254.14 389.145 1254.14C386.235 1254.14 383.478 1253.48 380.872 1252.18C378.296 1250.88 376.205 1248.98 374.599 1246.5C372.993 1244.02 372.19 1241.02 372.19 1237.5V1166.45ZM503.615 1254.45C498.008 1254.45 493.115 1252.91 488.933 1249.82C484.751 1246.73 481.508 1242.47 479.205 1237.05C476.933 1231.59 475.796 1225.33 475.796 1218.27C475.796 1211.27 476.948 1205.06 479.251 1199.64C481.584 1194.18 484.842 1189.91 489.024 1186.82C493.205 1183.7 498.084 1182.14 503.66 1182.14C507.66 1182.14 511.13 1182.91 514.069 1184.45C517.039 1185.97 519.524 1187.98 521.524 1190.5C523.554 1193.02 525.099 1195.77 526.16 1198.77H526.705V1159.91H532.205V1253H526.842V1237.77H526.16C525.039 1240.77 523.478 1243.55 521.478 1246.09C519.478 1248.61 516.993 1250.64 514.024 1252.18C511.054 1253.7 507.584 1254.45 503.615 1254.45ZM504.115 1249.32C508.842 1249.32 512.887 1247.97 516.251 1245.27C519.645 1242.55 522.236 1238.85 524.024 1234.18C525.842 1229.48 526.751 1224.17 526.751 1218.23C526.751 1212.29 525.842 1207 524.024 1202.36C522.236 1197.7 519.645 1194.03 516.251 1191.36C512.887 1188.67 508.842 1187.32 504.115 1187.32C499.327 1187.32 495.221 1188.68 491.796 1191.41C488.402 1194.11 485.796 1197.79 483.978 1202.45C482.19 1207.12 481.296 1212.38 481.296 1218.23C481.296 1224.08 482.19 1229.35 483.978 1234.05C485.796 1238.74 488.402 1242.47 491.796 1245.23C495.221 1247.95 499.327 1249.32 504.115 1249.32ZM599.747 1254.45C593.444 1254.45 587.959 1252.89 583.293 1249.77C578.626 1246.65 575.02 1242.38 572.475 1236.95C569.929 1231.53 568.656 1225.35 568.656 1218.41C568.656 1211.44 569.929 1205.23 572.475 1199.77C575.05 1194.32 578.581 1190.02 583.065 1186.86C587.55 1183.71 592.672 1182.14 598.429 1182.14C602.338 1182.14 606.035 1182.92 609.52 1184.5C613.035 1186.05 616.126 1188.29 618.793 1191.23C621.49 1194.17 623.596 1197.71 625.111 1201.86C626.656 1206.02 627.429 1210.68 627.429 1215.86V1219.32H572.156V1214.27H621.884C621.884 1209.21 620.853 1204.65 618.793 1200.59C616.732 1196.53 613.929 1193.3 610.384 1190.91C606.838 1188.52 602.853 1187.32 598.429 1187.32C593.793 1187.32 589.656 1188.62 586.02 1191.23C582.414 1193.8 579.55 1197.29 577.429 1201.68C575.338 1206.08 574.247 1210.98 574.156 1216.41V1218.68C574.156 1224.5 575.172 1229.73 577.202 1234.36C579.262 1238.97 582.202 1242.62 586.02 1245.32C589.838 1247.98 594.414 1249.32 599.747 1249.32C603.565 1249.32 606.823 1248.68 609.52 1247.41C612.247 1246.11 614.475 1244.53 616.202 1242.68C617.929 1240.83 619.232 1239.05 620.111 1237.32L625.156 1239.36C624.096 1241.7 622.444 1244.03 620.202 1246.36C617.99 1248.67 615.172 1250.59 611.747 1252.14C608.353 1253.68 604.353 1254.45 599.747 1254.45ZM710.8 1183.18L685.573 1253H679.3L654.073 1183.18H660.028L682.21 1245.86H682.664L704.846 1183.18H710.8ZM768.217 1254.45C761.914 1254.45 756.429 1252.89 751.763 1249.77C747.096 1246.65 743.49 1242.38 740.945 1236.95C738.399 1231.53 737.126 1225.35 737.126 1218.41C737.126 1211.44 738.399 1205.23 740.945 1199.77C743.52 1194.32 747.051 1190.02 751.535 1186.86C756.02 1183.71 761.142 1182.14 766.899 1182.14C770.808 1182.14 774.505 1182.92 777.99 1184.5C781.505 1186.05 784.596 1188.29 787.263 1191.23C789.96 1194.17 792.066 1197.71 793.581 1201.86C795.126 1206.02 795.899 1210.68 795.899 1215.86V1219.32H740.626V1214.27H790.354C790.354 1209.21 789.323 1204.65 787.263 1200.59C785.202 1196.53 782.399 1193.3 778.854 1190.91C775.308 1188.52 771.323 1187.32 766.899 1187.32C762.263 1187.32 758.126 1188.62 754.49 1191.23C750.884 1193.8 748.02 1197.29 745.899 1201.68C743.808 1206.08 742.717 1210.98 742.626 1216.41V1218.68C742.626 1224.5 743.642 1229.73 745.672 1234.36C747.732 1238.97 750.672 1242.62 754.49 1245.32C758.308 1247.98 762.884 1249.32 768.217 1249.32C772.035 1249.32 775.293 1248.68 777.99 1247.41C780.717 1246.11 782.945 1244.53 784.672 1242.68C786.399 1240.83 787.702 1239.05 788.581 1237.32L793.626 1239.36C792.566 1241.7 790.914 1244.03 788.672 1246.36C786.46 1248.67 783.642 1250.59 780.217 1252.14C776.823 1253.68 772.823 1254.45 768.217 1254.45ZM835.895 1159.91V1253H830.35V1159.91H835.895ZM900.165 1254.45C894.407 1254.45 889.286 1252.91 884.801 1249.82C880.316 1246.7 876.786 1242.41 874.21 1236.95C871.634 1231.5 870.346 1225.29 870.346 1218.32C870.346 1211.32 871.634 1205.11 874.21 1199.68C876.786 1194.23 880.316 1189.94 884.801 1186.82C889.286 1183.7 894.407 1182.14 900.165 1182.14C905.922 1182.14 911.043 1183.7 915.528 1186.82C920.013 1189.94 923.543 1194.23 926.119 1199.68C928.695 1205.14 929.983 1211.35 929.983 1218.32C929.983 1225.29 928.695 1231.5 926.119 1236.95C923.543 1242.41 920.013 1246.7 915.528 1249.82C911.043 1252.91 905.922 1254.45 900.165 1254.45ZM900.165 1249.32C905.043 1249.32 909.301 1247.94 912.937 1245.18C916.604 1242.42 919.437 1238.7 921.437 1234C923.468 1229.3 924.483 1224.08 924.483 1218.32C924.483 1212.56 923.468 1207.35 921.437 1202.68C919.407 1197.98 916.574 1194.26 912.937 1191.5C909.301 1188.71 905.043 1187.32 900.165 1187.32C895.286 1187.32 891.028 1188.71 887.392 1191.5C883.755 1194.26 880.922 1197.98 878.892 1202.68C876.862 1207.35 875.846 1212.56 875.846 1218.32C875.846 1224.08 876.846 1229.3 878.846 1234C880.877 1238.7 883.71 1242.42 887.346 1245.18C891.013 1247.94 895.286 1249.32 900.165 1249.32ZM964.445 1279.18V1183.18H969.854V1198.77H970.536C971.627 1195.77 973.157 1193.02 975.127 1190.5C977.127 1187.98 979.597 1185.97 982.536 1184.45C985.506 1182.91 988.99 1182.14 992.99 1182.14C998.627 1182.14 1003.54 1183.68 1007.72 1186.77C1011.9 1189.86 1015.14 1194.14 1017.45 1199.59C1019.75 1205.02 1020.9 1211.24 1020.9 1218.27C1020.9 1225.3 1019.73 1231.55 1017.4 1237C1015.1 1242.42 1011.85 1246.7 1007.67 1249.82C1003.52 1252.91 998.657 1254.45 993.081 1254.45C989.112 1254.45 985.627 1253.7 982.627 1252.18C979.657 1250.67 977.157 1248.65 975.127 1246.14C973.127 1243.59 971.597 1240.8 970.536 1237.77H969.99V1279.18H964.445ZM969.9 1218.23C969.9 1224.17 970.809 1229.48 972.627 1234.18C974.445 1238.85 977.051 1242.55 980.445 1245.27C983.839 1247.97 987.884 1249.32 992.581 1249.32C997.339 1249.32 1001.41 1247.95 1004.81 1245.23C1008.23 1242.47 1010.84 1238.74 1012.63 1234.05C1014.45 1229.35 1015.35 1224.08 1015.35 1218.23C1015.35 1212.38 1014.46 1207.12 1012.67 1202.45C1010.88 1197.79 1008.29 1194.11 1004.9 1191.41C1001.51 1188.68 997.4 1187.32 992.581 1187.32C987.824 1187.32 983.748 1188.67 980.354 1191.36C976.99 1194.03 974.4 1197.7 972.581 1202.36C970.793 1207 969.9 1212.29 969.9 1218.23ZM1055.43 1253V1183.18H1060.84V1193.73H1061.38C1062.72 1190.21 1065.02 1187.42 1068.29 1185.36C1071.57 1183.3 1075.51 1182.27 1080.11 1182.27C1085.17 1182.27 1089.25 1183.48 1092.34 1185.91C1095.46 1188.33 1097.7 1191.62 1099.07 1195.77H1099.57C1100.93 1191.68 1103.37 1188.41 1106.88 1185.95C1110.43 1183.5 1114.79 1182.27 1119.98 1182.27C1126.73 1182.27 1131.88 1184.41 1135.43 1188.68C1139.01 1192.92 1140.79 1198.74 1140.79 1206.14V1253H1135.25V1206.14C1135.25 1200.32 1133.85 1195.74 1131.07 1192.41C1128.28 1189.08 1124.19 1187.41 1118.79 1187.41C1113.04 1187.41 1108.61 1189.21 1105.52 1192.82C1102.43 1196.42 1100.88 1201.02 1100.88 1206.59V1253H1095.34V1205.77C1095.34 1200.35 1093.98 1195.94 1091.25 1192.55C1088.52 1189.12 1084.43 1187.41 1078.98 1187.41C1075.28 1187.41 1072.08 1188.26 1069.38 1189.95C1066.72 1191.65 1064.64 1193.98 1063.16 1196.95C1061.7 1199.92 1060.98 1203.33 1060.98 1207.18V1253H1055.43ZM1206.39 1254.45C1200.09 1254.45 1194.6 1252.89 1189.94 1249.77C1185.27 1246.65 1181.67 1242.38 1179.12 1236.95C1176.57 1231.53 1175.3 1225.35 1175.3 1218.41C1175.3 1211.44 1176.57 1205.23 1179.12 1199.77C1181.7 1194.32 1185.23 1190.02 1189.71 1186.86C1194.2 1183.71 1199.32 1182.14 1205.07 1182.14C1208.98 1182.14 1212.68 1182.92 1216.17 1184.5C1219.68 1186.05 1222.77 1188.29 1225.44 1191.23C1228.13 1194.17 1230.24 1197.71 1231.76 1201.86C1233.3 1206.02 1234.07 1210.68 1234.07 1215.86V1219.32H1178.8V1214.27H1228.53C1228.53 1209.21 1227.5 1204.65 1225.44 1200.59C1223.38 1196.53 1220.57 1193.3 1217.03 1190.91C1213.48 1188.52 1209.5 1187.32 1205.07 1187.32C1200.44 1187.32 1196.3 1188.62 1192.67 1191.23C1189.06 1193.8 1186.2 1197.29 1184.07 1201.68C1181.98 1206.08 1180.89 1210.98 1180.8 1216.41V1218.68C1180.8 1224.5 1181.82 1229.73 1183.85 1234.36C1185.91 1238.97 1188.85 1242.62 1192.67 1245.32C1196.48 1247.98 1201.06 1249.32 1206.39 1249.32C1210.21 1249.32 1213.47 1248.68 1216.17 1247.41C1218.89 1246.11 1221.12 1244.53 1222.85 1242.68C1224.57 1240.83 1225.88 1239.05 1226.76 1237.32L1231.8 1239.36C1230.74 1241.7 1229.09 1244.03 1226.85 1246.36C1224.63 1248.67 1221.82 1250.59 1218.39 1252.14C1215 1253.68 1211 1254.45 1206.39 1254.45ZM1274.07 1207.73V1253H1268.53V1183.18H1273.93V1194.23H1274.48C1276.12 1190.62 1278.74 1187.73 1282.34 1185.55C1285.95 1183.36 1290.24 1182.27 1295.21 1182.27C1299.9 1182.27 1304.03 1183.27 1307.57 1185.27C1311.15 1187.27 1313.93 1190.12 1315.93 1193.82C1317.96 1197.48 1318.98 1201.86 1318.98 1206.95V1253H1313.43V1207.18C1313.43 1201.24 1311.66 1196.47 1308.12 1192.86C1304.6 1189.23 1299.95 1187.41 1294.16 1187.41C1290.28 1187.41 1286.83 1188.26 1283.8 1189.95C1280.77 1191.65 1278.39 1194.03 1276.66 1197.09C1274.93 1200.12 1274.07 1203.67 1274.07 1207.73ZM1382.07 1183.18V1188.14H1351.57V1183.18H1382.07ZM1361.89 1166.45H1367.39V1236.5C1367.39 1239.35 1367.93 1241.68 1369.02 1243.5C1370.14 1245.29 1371.6 1246.62 1373.39 1247.5C1375.2 1248.35 1377.14 1248.77 1379.2 1248.77C1380.2 1248.77 1381.07 1248.7 1381.79 1248.55C1382.55 1248.39 1383.26 1248.2 1383.93 1247.95L1385.29 1253C1384.45 1253.3 1383.51 1253.56 1382.48 1253.77C1381.45 1254.02 1380.23 1254.14 1378.84 1254.14C1375.93 1254.14 1373.17 1253.48 1370.57 1252.18C1367.99 1250.88 1365.9 1248.98 1364.29 1246.5C1362.69 1244.02 1361.89 1241.02 1361.89 1237.5V1166.45Z" fill="#E7E7E7"/>
<path d="M831.282 532.767L719.113 657.343L334.299 310.855L450.021 182.333C483.97 144.628 520.83 119.184 560.6 105.999C600.245 92.7024 640.895 91.7656 682.552 103.189C724.196 114.374 764.997 137.956 804.957 173.936C845.042 210.029 872.891 248.374 888.506 288.971C904.233 329.443 907.457 370.451 898.176 411.996C888.77 453.427 866.472 493.684 831.282 532.767ZM720.658 553.603L777.673 490.281C804.066 460.969 820.492 431.643 826.951 402.301C833.284 372.847 830.271 343.823 817.912 315.229C805.427 286.522 783.964 258.465 753.525 231.057C723.336 203.875 693.377 185.632 663.648 176.329C634.031 166.901 605.259 166.737 577.329 175.84C549.4 184.942 522.803 203.523 497.539 231.582L437.309 298.474L720.658 553.603Z" fill="#E5E5E5"/>
<line x1="350.855" y1="597.001" x2="1012.86" y2="591.001" stroke="#10D37B" stroke-width="32"/>
<path d="M1255.33 170.667H1084.67L970.32 741.973C966.418 761.617 955.732 779.262 940.131 791.821C924.531 804.379 905.01 811.05 884.987 810.667H470.267C450.243 811.05 430.722 804.379 415.122 791.821C399.521 779.262 388.835 761.617 384.933 741.973L316.667 384H1042M871.333 1024C871.333 1047.56 890.436 1066.67 914 1066.67C937.564 1066.67 956.667 1047.56 956.667 1024C956.667 1000.44 937.564 981.333 914 981.333C890.436 981.333 871.333 1000.44 871.333 1024ZM402 1024C402 1047.56 421.103 1066.67 444.667 1066.67C468.231 1066.67 487.333 1047.56 487.333 1024C487.333 1000.44 468.231 981.333 444.667 981.333C421.103 981.333 402 1000.44 402 1024Z" stroke="#10D37B" stroke-width="32" stroke-linecap="round" stroke-linejoin="round"/>
<rect x="134" y="51" width="1192" height="1071" rx="33" stroke="#10D37B" stroke-width="24"/>
</g>
<defs>
<filter id="filter0_d_7760_16" x="-4" y="0" width="1448" height="1288" filterUnits="userSpaceOnUse" color-interpolation-filters="sRGB">
<feFlood flood-opacity="0" result="BackgroundImageFix"/>
<feColorMatrix in="SourceAlpha" type="matrix" values="0 0 0 0 0 0 0 0 0 0 0 0 0 0 0 0 0 0 127 0" result="hardAlpha"/>
<feOffset dy="4"/>
<feGaussianBlur stdDeviation="2"/>
<feComposite in2="hardAlpha" operator="out"/>
<feColorMatrix type="matrix" values="0 0 0 0 0 0 0 0 0 0 0 0 0 0 0 0 0 0 0.25 0"/>
<feBlend mode="normal" in2="BackgroundImageFix" result="effect1_dropShadow_7760_16"/>
<feBlend mode="normal" in="SourceGraphic" in2="effect1_dropShadow_7760_16" result="shape"/>
</filter>
<clipPath id="clip0_7760_16">
<rect width="1440" height="1280" fill="white"/>
</clipPath>
</defs>
</svg>
